<svg height="512pt" viewBox="0 0 512.001 512" width="512pt" xmlns="http://www.w3.org/2000/svg"><path d="m430.929688 151.777344 23.703124-23.703125c5.273438-5.277344 5.835938-13.597657 1.40625-19.597657-14.78125-20.019531-32.5-37.734374-52.519531-52.519531-6-4.429687-14.320312-3.867187-19.59375 1.40625l-23.707031 23.703125c-16.890625-10.089844-35.121094-17.632812-54.21875-22.425781v-33.539063c0-7.457031-5.488281-13.746093-12.863281-14.851562-12.113281-1.8125-24.515625-2.75-37.136719-2.75s-25.023438.9375-37.136719 2.75c-7.375 1.105469-12.863281 7.394531-12.863281 14.851562v33.539063c-19.097656 4.792969-37.332031 12.335937-54.222656 22.429687l-23.703125-23.703124c-5.273438-5.277344-13.597657-5.835938-19.597657-1.40625-20.019531 14.78125-37.734374 32.496093-52.515624 52.515624-4.433594 6-3.871094 14.324219 1.402343 19.597657l23.707031 23.703125c-10.09375 16.890625-17.636718 35.125-22.429687 54.222656h-33.539063c-7.457031 0-13.746093 5.488281-14.851562 12.867188-1.8125 12.109374-2.75 24.511718-2.75 37.132812s.9375 25.023438 2.75 37.136719c1.105469 7.375 7.394531 12.863281 14.851562 12.863281h33.539063c4.792969 19.097656 12.335937 37.332031 22.425781 54.21875l-23.703125 23.707031c-5.273437 5.273438-5.835937 13.59375-1.402343 19.59375 14.777343 20.023438 32.496093 37.738281 52.515624 52.519531 6 4.429688 14.324219 3.871094 19.597657-1.40625l23.703125-23.703124 104.222656 28.570312 143.9375-59.5625 59.5625-143.9375zm-174.929688 219.222656c-63.511719 0-115-51.488281-115-115s51.488281-115 115-115 115 51.488281 115 115-51.488281 115-115 115zm0 0" fill="#8b9ba9"/><path d="m501.75 218.867188c-1.105469-7.378907-7.394531-12.867188-14.851562-12.867188h-33.546876c-4.792968-19.097656-12.328124-37.332031-22.421874-54.222656-12.472657 12.46875-16.53125 30.945312-10.804688 47.625 6.164062 17.964844 9.375 37.03125 9.375 56.597656 0 46.398438-18.03125 89.980469-50.773438 122.726562-32.746093 32.742188-76.328124 50.773438-122.726562 50.773438-19.566406 0-38.632812-3.207031-56.597656-9.375-16.679688-5.726562-35.15625-1.667969-47.625 10.804688 16.886718 10.09375 35.125 17.628906 54.222656 22.425781v33.542969c0 7.460937 5.488281 13.75 12.863281 14.851562 12.113281 1.8125 24.515625 2.75 37.136719 2.75s25.023438-.9375 37.136719-2.75c7.375-1.105469 12.863281-7.390625 12.863281-14.851562v-33.539063c19.097656-4.792969 37.332031-12.335937 54.222656-22.429687l23.703125 23.707031c5.273438 5.273437 13.597657 5.832031 19.597657 1.402343 20.019531-14.78125 37.734374-32.496093 52.515624-52.515624 4.433594-6 3.871094-14.320313-1.402343-19.597657l-23.707031-23.703125c10.09375-16.890625 17.636718-35.125 22.429687-54.222656h33.539063c7.457031 0 13.746093-5.484375 14.851562-12.863281 1.8125-12.113281 2.75-24.511719 2.75-37.136719 0-12.621094-.9375-25.023438-2.75-37.132812zm0 0" fill="#6c7a88"/><path d="m256 112.5c-79.414062 0-143.5 64.066406-143.5 143.5 0 79.417969 64.066406 143.5 143.5 143.5 79.414062 0 143.5-64.066406 143.5-143.5 0-79.414062-64.066406-143.5-143.5-143.5zm0 227c-46.253906 0-83.5-37.234375-83.5-83.5 0-46.253906 37.234375-83.5 83.5-83.5 46.253906 0 83.5 37.234375 83.5 83.5 0 46.253906-37.234375 83.5-83.5 83.5zm0 0" fill="#6c7a88"/><path d="m357.535156 154.464844c-11.152344 11.15625-13.199218 28.527344-4.875 41.925781 11.03125 17.765625 16.929688 38.25 16.929688 59.613281 0 30.257813-11.835938 58.757813-33.332032 80.253906-21.496093 21.496094-50 33.335938-80.261718 33.332032-21.359375 0-41.84375-5.898438-59.605469-16.929688-13.398437-8.324218-30.773437-6.277344-41.925781 4.875 25.945312 25.945313 61.820312 41.964844 101.535156 41.964844 79.414062 0 143.5-64.066406 143.5-143.5 0-39.707031-16.019531-75.585938-41.964844-101.535156zm0 0" fill="#596775"/><path d="m509.171875 217.746094c-.632813-4.148438-4.492187-6.90625-8.53125-6.300782-4.179687.632813-6.902344 4.492188-6.3125 8.527344 1.773437 11.851563 2.671875 23.972656 2.671875 36.023438 0 12.058594-.898438 24.179687-2.671875 36.027344-.566406 3.75-3.6875 6.472656-7.429687 6.472656h-33.539063c-3.449219 0-6.4375 2.332031-7.28125 5.671875-4.609375 18.386719-11.867187 35.949219-21.589844 52.199219-1.757812 2.960937-1.300781 6.71875 1.140625 9.148437l23.699219 23.710937c2.65625 2.65625 2.898437 6.847657.671875 9.839844-14.351562 19.441406-31.488281 36.582032-50.929688 50.941406-3.007812 2.199219-7.167968 1.992188-9.839843-.679687l-23.703125-23.699219c-2.527344-2.53125-6.335938-2.835937-9.148438-1.144531-16.257812 9.722656-33.828125 16.984375-52.207031 21.59375-3.34375.839844-5.671875 3.828125-5.671875 7.277344v33.542969c0 3.738281-2.722656 6.859374-6.480469 7.429687-23.648437 3.539063-48.390625 3.539063-72.039062 0-3.761719-.570313-6.480469-3.691406-6.480469-7.429687v-33.542969c0-3.449219-2.328125-6.4375-5.667969-7.277344-18.371093-4.601563-35.941406-11.871094-52.210937-21.59375-2.8125-1.691406-6.625-1.386719-9.148438 1.144531l-23.703125 23.699219c-2.589843 2.59375-6.773437 2.9375-9.839843.679687-19.449219-14.371093-36.589844-31.507812-50.9375-50.941406-2.191407-3-2.019532-7.128906.667968-9.839844l23.710938-23.710937c2.429687-2.429687 2.898437-6.1875 1.140625-9.148437-16.523438-27.632813-21.101563-51.199219-21.601563-52.199219-.828125-3.339844-3.816406-5.671875-7.269531-5.671875h-33.539063c-3.742187 0-6.863281-2.722656-7.429687-6.472656-1.773437-11.847657-2.671875-23.96875-2.671875-36.027344 0-12.050782.898438-24.171875 2.671875-36.023438.566406-3.757812 3.699219-6.476562 7.429687-6.476562h33.539063c3.449219 0 6.4375-2.332032 7.269531-5.671875 4.621094-18.378907 11.878906-35.941407 21.601563-52.199219 1.757812-2.960938 1.289062-6.722656-1.140625-9.152344l-23.699219-23.710937c-2.761719-2.78125-2.824219-6.90625-.683594-9.839844 14.363281-19.441406 31.5-36.570313 50.941407-50.941406 2.882812-2.121094 7.074218-2.085938 9.839843.683593l23.710938 23.699219c2.496093 2.496094 6.246093 2.851563 9.148437 1.140625 16.25-9.71875 33.820313-16.980468 52.199219-21.589844 3.34375-.839843 5.671875-3.832031 5.671875-7.28125v-33.542968c0-3.730469 2.71875-6.859375 6.480469-7.429688 23.6875-3.550781 48.347656-3.550781 72.039062 0 3.757813.570313 6.480469 3.699219 6.480469 7.429688v33.542968c0 3.449219 2.328125 6.441407 5.667969 7.28125 18.382812 4.605469 35.941406 11.867188 52.199219 21.578126 1.171874.699218 2.5 1.070312 3.851562 1.070312 2 0 3.890625-.78125 5.300781-2.199219l23.710938-23.703125c2.742187-2.742187 6.886719-2.839844 9.839843-.679687 19.4375 14.359375 36.578126 31.5 50.929688 50.941406 2.203125 2.964844 2.011719 7.160156-.671875 9.839844l-23.699219 23.699219c-2.429687 2.441406-2.898437 6.203124-1.140625 9.152343 9.710938 16.25 16.980469 33.820313 21.589844 52.199219.84375 3.351562 3.832031 5.683594 7.28125 5.683594h24.960937c4.128907 0 7.488282-3.371094 7.488282-7.5 0-4.144532-3.359375-7.5-7.488282-7.5h-19.199218c-4.449219-15.851563-10.78125-31.152344-18.8125-45.492188l19.628906-19.628906c7.773438-7.773438 8.851562-20.277344 2.132812-29.363281-15.25-20.648438-33.449218-38.847657-54.101562-54.101563-9.023438-6.667968-21.527344-5.699218-29.351562 2.140625l-19.628907 19.628907c-14.351562-8.027344-29.648437-14.359376-45.488281-18.820313v-27.769531c0-5.410156-1.949219-10.628906-5.5-14.71875-3.53125-4.070313-8.421875-6.75-13.75-7.550782-25.160156-3.761718-51.339844-3.761718-76.5 0-5.332031.800782-10.222656 3.480469-13.75 7.550782-3.550781 4.089844-5.5 9.308594-5.5 14.71875v27.773437c-15.839844 4.449219-31.140625 10.789063-45.492188 18.820313l-19.628906-19.632813c-7.800781-7.800781-20.292968-8.84375-29.371094-2.128906-20.640624 15.242187-38.839843 33.441406-54.078124 54.089844-6.617188 8.949219-5.777344 21.453125 2.128906 29.363281l19.628906 19.628906c-8.027344 14.351563-14.359375 29.652344-18.808594 45.492188h-27.777344c-11.164062 0-20.617187 8.222656-22.273437 19.25-1.878906 12.566406-2.828125 25.4375-2.828125 38.25 0 12.808594.949219 25.679687 2.828125 38.238281 1.65625 11.046875 11.097656 19.261719 22.273437 19.261719h27.769532c4.457031 15.839844 10.789062 31.148437 18.816406 45.488281l-19.628906 19.632813c-7.886719 7.886718-8.765625 20.390624-2.128906 29.359374 15.238281 20.652344 33.4375 38.851563 54.089843 54.089844 8.9375 6.609375 21.425781 5.796875 29.351563-2.128906l19.640625-19.628906c14.347656 8.03125 29.648437 14.359375 45.488281 18.8125v27.777344c0 11.191406 8.242188 20.628906 19.25 22.261718 12.578125 1.878906 25.4375 2.839844 38.25 2.839844 12.808594 0 25.671875-.960938 38.25-2.839844 10.996094-1.628906 19.25-11.0625 19.25-22.261718v-27.777344c15.839844-4.453125 31.148438-10.78125 45.488281-18.8125l19.632813 19.628906c7.753906 7.738281 20.179687 8.875 29.347656 2.140625 20.652344-15.25 38.859375-33.449219 54.101562-54.101563 6.6875-9.039062 5.683594-21.550781-2.128906-29.359374l-19.632812-19.632813c8.03125-14.347656 14.363281-29.648437 18.8125-45.488281h27.777344c11.242187 0 20.628906-8.277344 22.273437-19.261719 1.878906-12.558594 2.828125-25.429687 2.828125-38.238281 0-12.8125-.949219-25.683594-2.828125-38.25zm0 0"/><path d="m149.328125 159.621094c-3.210937-2.617188-7.933594-2.136719-10.550781 1.074218-22.097656 27.101563-33.777344 60.054688-33.777344 95.300782 0 83.5625 67.421875 151.003906 151 151.003906 83.566406 0 151-67.425781 151-151.003906 0-83.566406-67.421875-151.003906-151-151.003906-35.066406 0-67.890625 11.574218-94.921875 33.472656-3.21875 2.605468-3.714844 7.328125-1.105469 10.546875 2.605469 3.21875 7.332032 3.714843 10.546875 1.109375 24.332031-19.710938 53.890625-30.128906 85.480469-30.128906 75.269531 0 136 60.714843 136 136.003906 0 75.269531-60.714844 136-136 136-75.269531 0-136-60.714844-136-136 0-31.753906 10.511719-61.429688 30.402344-85.824219 2.617187-3.207031 2.136718-7.929687-1.074219-10.550781zm0 0"/><path d="m320.390625 320.386719c17.160156-17.164063 26.609375-40.03125 26.609375-64.390625 0-50.402344-40.589844-91.003906-91-91.003906-50.402344 0-91 40.589843-91 91.003906 0 24.359375 9.449219 47.226562 26.609375 64.390625 17.164063 17.160156 40.03125 26.609375 64.390625 26.609375s47.226562-9.449219 64.390625-26.609375zm-140.390625-64.390625c0-42.109375 33.878906-76 76-76 42.109375 0 76 33.878906 76 76 0 20.351562-7.890625 39.453125-22.21875 53.78125s-33.429688 22.21875-53.78125 22.21875-39.453125-7.890625-53.78125-22.21875-22.21875-33.429688-22.21875-53.78125zm0 0"/></svg>