<?xml version="1.0" encoding="iso-8859-1"?>
<!-- Generator: Adobe Illustrator 19.0.0, SVG Export Plug-In . SVG Version: 6.00 Build 0)  -->
<svg version="1.1" id="Capa_1" xmlns="http://www.w3.org/2000/svg" xmlns:xlink="http://www.w3.org/1999/xlink" x="0px" y="0px"
	 viewBox="0 0 512 512" style="enable-background:new 0 0 512 512;" xml:space="preserve">
<path style="fill:#636363;" d="M512,307.712V204.288l-55.396-13.849c-3.353-10.256-7.504-20.266-12.407-29.912l29.388-48.981
	l-73.131-73.131l-48.981,29.389c-9.647-4.903-19.656-9.055-29.912-12.407L307.712,0H256l-60,150h60c58.542,0,106,47.458,106,106
	s-47.458,106-106,106h-60l60,150h51.711l13.85-55.396c10.255-3.353,20.265-7.504,29.912-12.407l48.981,29.389l73.132-73.131
	l-29.389-48.981c4.903-9.646,9.055-19.656,12.407-29.912L512,307.712z"/>
<path style="fill:#828282;" d="M150,256c0-58.542,47.458-106,106-106V0h-51.711l-13.85,55.396
	c-10.255,3.353-20.265,7.504-29.912,12.407l-48.981-29.389l-73.132,73.131l29.389,48.981c-4.903,9.646-9.054,19.656-12.407,29.912
	L0,204.288v103.424l55.396,13.849c3.353,10.256,7.504,20.266,12.407,29.912l-29.388,48.981l73.131,73.131l48.981-29.389
	c9.647,4.903,19.656,9.055,29.912,12.407L204.288,512H256V362C197.458,362,150,314.542,150,256z"/>
<path style="fill:#242424;" d="M256,105l-30,45h30c58.542,0,106,47.458,106,106s-47.458,106-106,106h-30l30,45
	c83.395,0,151-67.605,151-151S339.395,105,256,105z"/>
<path style="fill:#434343;" d="M150,256c0-58.542,47.458-106,106-106v-45c-83.395,0-151,67.605-151,151s67.605,151,151,151v-45
	C197.458,362,150,314.542,150,256z"/>
<path style="fill:#3F3F3F;" d="M256,135l-20,22.5l20,22.5c41.974,0,76,34.026,76,76s-34.026,76-76,76l-20,22.5l20,22.5
	c66.826,0,121-54.173,121-121S322.826,135,256,135z"/>
<path style="fill:#636363;" d="M180,256c0-41.974,34.026-76,76-76v-45c-66.826,0-121,54.173-121,121s54.174,121,121,121v-45
	C214.026,332,180,297.974,180,256z"/>
<g>
</g>
<g>
</g>
<g>
</g>
<g>
</g>
<g>
</g>
<g>
</g>
<g>
</g>
<g>
</g>
<g>
</g>
<g>
</g>
<g>
</g>
<g>
</g>
<g>
</g>
<g>
</g>
<g>
</g>
</svg>
