<?xml version="1.0" encoding="UTF-8" standalone="no"?> <svg width="64" height="64" viewBox="0 0 64 64" fill="none" xmlns="http://www.w3.org/2000/svg">
<path d="M47 6H20V34H47V6Z" fill="#9CAFB7"/>
<path d="M20 6H16V34H20V6Z" fill="#4281A4"/>
<path d="M48 8H19C18.2044 8 17.4413 7.68393 16.8787 7.12132C16.3161 6.55871 16 5.79565 16 5V5C16 4.20435 16.3161 3.44129 16.8787 2.87868C17.4413 2.31607 18.2044 2 19 2H48C47.4446 2.28011 46.9779 2.70887 46.6519 3.23855C46.3258 3.76822 46.1531 4.378 46.1531 5C46.1531 5.622 46.3258 6.23178 46.6519 6.76145C46.9779 7.29113 47.4446 7.71989 48 8V8Z" fill="#A9DEF9"/>
<path d="M39 14H27V18H39V14Z" fill="#FCF6BD"/>
<path d="M55.5 40V41.59C55.7941 41.6905 56.0495 41.8804 56.2303 42.1333C56.4111 42.3861 56.5083 42.6892 56.5083 43C56.5083 43.3108 56.4111 43.6139 56.2303 43.8667C56.0495 44.1196 55.7941 44.3095 55.5 44.41V47L57.8 45.35C58.8209 44.6065 59.5811 43.5599 59.9725 42.3592C60.3639 41.1584 60.3664 39.8648 59.9796 38.6626C59.5929 37.4604 58.8367 36.4108 57.8187 35.6634C56.8007 34.916 55.5729 34.5089 54.31 34.5H44C43.6022 34.5 43.2206 34.658 42.9393 34.9393C42.658 35.2206 42.5 35.6022 42.5 36C42.5 36.3978 42.658 36.7794 42.9393 37.0607C43.2206 37.342 43.6022 37.5 44 37.5H53C53.663 37.5 54.2989 37.7634 54.7678 38.2322C55.2366 38.7011 55.5 39.337 55.5 40V40Z" fill="#4281A4"/>
<path d="M18.5 38.5H11C10.6022 38.5 10.2206 38.658 9.93934 38.9393C9.65804 39.2206 9.5 39.6022 9.5 40V42C9.5 42.1326 9.44732 42.2598 9.35355 42.3536C9.25979 42.4473 9.13261 42.5 9 42.5C8.86739 42.5 8.74021 42.5527 8.64645 42.6464C8.55268 42.7402 8.5 42.8674 8.5 43C8.5 43.1326 8.55268 43.2598 8.64645 43.3536C8.74021 43.4473 8.86739 43.5 9 43.5C9.13261 43.5 9.25979 43.5527 9.35355 43.6464C9.44732 43.7402 9.5 43.8674 9.5 44V47.5H13C14.4579 47.4974 15.8553 46.917 16.8862 45.8862C17.917 44.8553 18.4974 43.4579 18.5 42V38.5Z" fill="#EAD2AC"/>
<path d="M8.50062 44.41C8.20647 44.3095 7.95112 44.1196 7.7703 43.8667C7.58949 43.6139 7.49228 43.3108 7.49228 43C7.49228 42.6892 7.58949 42.3861 7.7703 42.1333C7.95112 41.8804 8.20647 41.6905 8.50062 41.59V40C8.50062 39.337 8.76401 38.7011 9.23285 38.2322C9.70169 37.7634 10.3376 37.5 11.0006 37.5H20.0006C20.3984 37.5 20.78 37.342 21.0613 37.0607C21.3426 36.7794 21.5006 36.3978 21.5006 36C21.5006 35.6022 21.3426 35.2206 21.0613 34.9393C20.78 34.658 20.3984 34.5 20.0006 34.5H9.69062C8.41983 34.5002 7.1819 34.9038 6.15527 35.6528C5.12863 36.4017 4.3663 37.4573 3.97814 38.6673C3.58999 39.8774 3.59606 41.1795 3.99548 42.3858C4.3949 43.5922 5.16704 44.6407 6.20062 45.38L8.50062 47V44.41Z" fill="#4281A4"/>
<path d="M12 54.5C11.6022 54.5 11.2206 54.658 10.9393 54.9393C10.658 55.2206 10.5 55.6022 10.5 56V61.5H13.5V56C13.5 55.6022 13.342 55.2206 13.0607 54.9393C12.7794 54.658 12.3978 54.5 12 54.5V54.5Z" fill="#EAD2AC"/>
<path d="M2.5 58V61.5H9.5V56C9.5 55.337 9.76339 54.7011 10.2322 54.2322C10.7011 53.7634 11.337 53.5 12 53.5C12.663 53.5 13.2989 53.7634 13.7678 54.2322C14.2366 54.7011 14.5 55.337 14.5 56V61.5H21.5V58C21.5 55.4804 20.4991 53.0641 18.7175 51.2825C16.9359 49.5009 14.5196 48.5 12 48.5C9.48044 48.5 7.06408 49.5009 5.28249 51.2825C3.50089 53.0641 2.5 55.4804 2.5 58V58Z" fill="#FE938C"/>
<path d="M52 54.5C51.6022 54.5 51.2206 54.658 50.9393 54.9393C50.658 55.2206 50.5 55.6022 50.5 56V61.5H53.5V56C53.5 55.6022 53.342 55.2206 53.0607 54.9393C52.7794 54.658 52.3978 54.5 52 54.5V54.5Z" fill="#EAD2AC"/>
<path d="M52 48.5C49.4813 48.5026 47.0664 49.5044 45.2854 51.2854C43.5044 53.0664 42.5026 55.4813 42.5 58V61.5H49.5V56C49.5 55.337 49.7634 54.7011 50.2322 54.2322C50.7011 53.7634 51.337 53.5 52 53.5C52.663 53.5 53.2989 53.7634 53.7678 54.2322C54.2366 54.7011 54.5 55.337 54.5 56V61.5H61.5V58C61.4974 55.4813 60.4956 53.0664 58.7146 51.2854C56.9336 49.5044 54.5187 48.5026 52 48.5Z" fill="#FE938C"/>
<path d="M54.5 47.5V44C54.5 43.8674 54.5527 43.7402 54.6464 43.6464C54.7402 43.5527 54.8674 43.5 55 43.5C55.1326 43.5 55.2598 43.4473 55.3536 43.3536C55.4473 43.2598 55.5 43.1326 55.5 43C55.5 42.8674 55.4473 42.7402 55.3536 42.6464C55.2598 42.5527 55.1326 42.5 55 42.5C54.8674 42.5 54.7402 42.4473 54.6464 42.3536C54.5527 42.2598 54.5 42.1326 54.5 42V40C54.5 39.6022 54.342 39.2206 54.0607 38.9393C53.7794 38.658 53.3978 38.5 53 38.5H45.5V42C45.5026 43.4579 46.083 44.8553 47.1138 45.8862C48.1447 46.917 49.5421 47.4974 51 47.5H54.5Z" fill="#EAD2AC"/>
<path d="M39 19C39.2652 19 39.5196 18.8946 39.7071 18.7071C39.8946 18.5196 40 18.2652 40 18V14C40 13.7348 39.8946 13.4804 39.7071 13.2929C39.5196 13.1054 39.2652 13 39 13H27C26.7348 13 26.4804 13.1054 26.2929 13.2929C26.1054 13.4804 26 13.7348 26 14V18C26 18.2652 26.1054 18.5196 26.2929 18.7071C26.4804 18.8946 26.7348 19 27 19H39ZM28 15H38V17H28V15Z" fill="black"/>
<path d="M41 24H25V26H41V24Z" fill="black"/>
<path d="M41 31H25V33H41V31Z" fill="black"/>
<path d="M56.65 48.05L58.65 46.6C59.9404 45.6769 60.9049 44.3684 61.4047 42.8626C61.9045 41.3569 61.9139 39.7313 61.4316 38.2199C60.9492 36.7084 60 35.3888 58.7203 34.4509C57.4407 33.5129 55.8966 33.005 54.31 33H48V9C48.2239 8.99867 48.4409 8.92223 48.6162 8.78291C48.7915 8.6436 48.915 8.44947 48.9669 8.23164C49.0187 8.0138 48.996 7.78486 48.9023 7.58149C48.8086 7.37812 48.6493 7.21209 48.45 7.11C48.0552 6.91814 47.7233 6.61778 47.4931 6.2441C47.2629 5.87041 47.1438 5.43887 47.15 5C47.1438 4.56113 47.2629 4.12959 47.4931 3.7559C47.7233 3.38222 48.0552 3.08186 48.45 2.89C48.6493 2.78791 48.8086 2.62188 48.9023 2.41851C48.996 2.21514 49.0187 1.9862 48.9669 1.76836C48.915 1.55053 48.7915 1.3564 48.6162 1.21709C48.4409 1.07777 48.2239 1.00133 48 1H19C17.9391 1 16.9217 1.42143 16.1716 2.17157C15.4214 2.92172 15 3.93913 15 5V33H9.69C8.10172 33.0007 6.55469 33.5057 5.27179 34.4421C3.9889 35.3784 3.0364 36.6979 2.55152 38.2104C2.06665 39.7228 2.07444 41.3502 2.57377 42.8579C3.07311 44.3656 4.0382 45.6759 5.33 46.6L7.33 48.05C5.43923 48.9366 3.83989 50.3431 2.71895 52.1051C1.59802 53.867 1.0018 55.9117 1 58V62C1 62.2652 1.10536 62.5196 1.29289 62.7071C1.48043 62.8946 1.73478 63 2 63H22C22.2652 63 22.5196 62.8946 22.7071 62.7071C22.8946 62.5196 23 62.2652 23 62V58C22.9989 55.8923 22.3923 53.8293 21.2524 52.0565C20.1124 50.2837 18.4872 48.8756 16.57 48C17.612 47.3822 18.4759 46.5045 19.0771 45.4528C19.6783 44.4011 19.9963 43.2114 20 42V39C20.7035 38.9945 21.3828 38.742 21.919 38.2865C22.4552 37.831 22.8143 37.2015 22.9334 36.5081C23.0525 35.8147 22.9242 35.1015 22.5708 34.4931C22.2174 33.8848 21.6614 33.42 21 33.18V9H46V33H44C43.2044 33 42.4413 33.3161 41.8787 33.8787C41.3161 34.4413 41 35.2044 41 36C41 36.7956 41.3161 37.5587 41.8787 38.1213C42.4413 38.6839 43.2044 39 44 39V42C44.0037 43.2114 44.3217 44.4011 44.9229 45.4528C45.5241 46.5045 46.388 47.3822 47.43 48C45.5128 48.8756 43.8876 50.2837 42.7476 52.0565C41.6077 53.8293 41.0011 55.8923 41 58V62C41 62.2652 41.1054 62.5196 41.2929 62.7071C41.4804 62.8946 41.7348 63 42 63H62C62.2652 63 62.5196 62.8946 62.7071 62.7071C62.8946 62.5196 63 62.2652 63 62V58C62.9964 55.9095 62.3972 53.8633 61.2726 52.1011C60.148 50.3389 58.5445 48.9337 56.65 48.05V48.05ZM17 8.44C17.604 8.80355 18.295 8.99704 19 9V33H17V8.44ZM13 61H11V56C11 55.7348 11.1054 55.4804 11.2929 55.2929C11.4804 55.1054 11.7348 55 12 55C12.2652 55 12.5196 55.1054 12.7071 55.2929C12.8946 55.4804 13 55.7348 13 56V61ZM21 58V61H15V56C15 55.2044 14.6839 54.4413 14.1213 53.8787C13.5587 53.3161 12.7956 53 12 53C11.2044 53 10.4413 53.3161 9.87868 53.8787C9.31607 54.4413 9 55.2044 9 56V61H3V58C3 55.6131 3.94821 53.3239 5.63604 51.636C7.32387 49.9482 9.61305 49 12 49C14.3869 49 16.6761 49.9482 18.364 51.636C20.0518 53.3239 21 55.6131 21 58V58ZM18 42C18 43.3261 17.4732 44.5979 16.5355 45.5355C15.5979 46.4732 14.3261 47 13 47H10V44C10 43.7348 9.89464 43.4804 9.70711 43.2929C9.51957 43.1054 9.26522 43 9 43C9.26522 43 9.51957 42.8946 9.70711 42.7071C9.89464 42.5196 10 42.2652 10 42V40C10 39.7348 10.1054 39.4804 10.2929 39.2929C10.4804 39.1054 10.7348 39 11 39H18V42ZM20 37H11C10.2044 37 9.44129 37.3161 8.87868 37.8787C8.31607 38.4413 8 39.2044 8 40V41.27C7.69692 41.4458 7.44535 41.6982 7.27047 42.0018C7.09559 42.3054 7.00354 42.6496 7.00354 43C7.00354 43.3504 7.09559 43.6946 7.27047 43.9982C7.44535 44.3018 7.69692 44.5542 8 44.73V46.06L6.49 45C5.53094 44.3261 4.81226 43.3634 4.43877 42.2524C4.06528 41.1413 4.05652 39.94 4.41376 38.8236C4.771 37.7072 5.47557 36.7342 6.4247 36.0463C7.37382 35.3585 8.51788 34.9919 9.69 35H20C20.2652 35 20.5196 35.1054 20.7071 35.2929C20.8946 35.4804 21 35.7348 21 36C21 36.2652 20.8946 36.5196 20.7071 36.7071C20.5196 36.8946 20.2652 37 20 37ZM45.63 7H19C18.4696 7 17.9609 6.78929 17.5858 6.41421C17.2107 6.03914 17 5.53043 17 5C17 4.46957 17.2107 3.96086 17.5858 3.58579C17.9609 3.21071 18.4696 3 19 3H45.63C45.3147 3.61955 45.1504 4.30485 45.1504 5C45.1504 5.69515 45.3147 6.38045 45.63 7V7ZM43 36C43 35.7348 43.1054 35.4804 43.2929 35.2929C43.4804 35.1054 43.7348 35 44 35H54.31C55.4821 34.9919 56.6262 35.3585 57.5753 36.0463C58.5244 36.7342 59.229 37.7072 59.5862 38.8236C59.9435 39.94 59.9347 41.1413 59.5612 42.2524C59.1877 43.3634 58.4691 44.3261 57.51 45L56 46.06V44.73C56.3031 44.5542 56.5547 44.3018 56.7295 43.9982C56.9044 43.6946 56.9965 43.3504 56.9965 43C56.9965 42.6496 56.9044 42.3054 56.7295 42.0018C56.5547 41.6982 56.3031 41.4458 56 41.27V40C56 39.2044 55.6839 38.4413 55.1213 37.8787C54.5587 37.3161 53.7956 37 53 37H44C43.7348 37 43.4804 36.8946 43.2929 36.7071C43.1054 36.5196 43 36.2652 43 36ZM46 42V39H53C53.2652 39 53.5196 39.1054 53.7071 39.2929C53.8946 39.4804 54 39.7348 54 40V42C54 42.2652 54.1054 42.5196 54.2929 42.7071C54.4804 42.8946 54.7348 43 55 43C54.7348 43 54.4804 43.1054 54.2929 43.2929C54.1054 43.4804 54 43.7348 54 44V47H51C49.6739 47 48.4021 46.4732 47.4645 45.5355C46.5268 44.5979 46 43.3261 46 42V42ZM53 61H51V56C51 55.7348 51.1054 55.4804 51.2929 55.2929C51.4804 55.1054 51.7348 55 52 55C52.2652 55 52.5196 55.1054 52.7071 55.2929C52.8946 55.4804 53 55.7348 53 56V61ZM61 61H55V56C55 55.2044 54.6839 54.4413 54.1213 53.8787C53.5587 53.3161 52.7956 53 52 53C51.2044 53 50.4413 53.3161 49.8787 53.8787C49.3161 54.4413 49 55.2044 49 56V61H43V58C43 55.6131 43.9482 53.3239 45.636 51.636C47.3239 49.9482 49.6131 49 52 49C54.3869 49 56.6761 49.9482 58.364 51.636C60.0518 53.3239 61 55.6131 61 58V61Z" fill="black"/>
</svg>
