<?xml version="1.0" encoding="UTF-8"?>
<svg xmlns="http://www.w3.org/2000/svg" xmlns:xlink="http://www.w3.org/1999/xlink" width="512" height="512" viewBox="0 0 57 56" version="1.1"><!-- Generator: Sketch 51.3 (57544) - http://www.bohemiancoding.com/sketch --><title>001 - Thinking</title><desc>Created with Sketch.</desc><defs/><g id="Page-1" stroke="none" stroke-width="1" fill="none" fill-rule="evenodd"><g id="001---Thinking" transform="translate(0.000000, -1.000000)" fill="#fff" fill-rule="nonzero"><path d="M35.9,8.577 L35.18,5 L32.82,5 L32.1,8.577 C32.0252418,8.94857024 31.7468426,9.24594237 31.381,9.345 C30.5547759,9.56773445 29.7610951,9.89717418 29.02,10.325 C28.6897571,10.5165562 28.2792625,10.5033645 27.962,10.291 L24.933,8.261 L23.266,9.937 L25.29,12.963 C25.5023645,13.2802625 25.5155562,13.6907571 25.324,14.021 C24.8961742,14.7620951 24.5667344,15.5557759 24.344,16.382 C24.2449424,16.7478426 23.9475702,17.0262418 23.576,17.101 L20,17.82 L20,20.18 L23.577,20.899 C23.9485702,20.9737582 24.2459424,21.2521574 24.345,21.618 C24.5677344,22.4442241 24.8971742,23.2379049 25.325,23.979 C25.5165562,24.3092429 25.5033645,24.7197375 25.291,25.037 L23.261,28.066 L24.937,29.733 L27.963,27.709 C28.2802625,27.4966355 28.6907571,27.4834438 29.021,27.675 C29.7620951,28.1028258 30.5557759,28.4322656 31.382,28.655 C31.7478426,28.7540576 32.0262418,29.0514298 32.101,29.423 L32.82,33 L35.18,33 L35.899,29.423 C35.9737582,29.0514298 36.2521574,28.7540576 36.618,28.655 C37.4442241,28.4322656 38.2379049,28.1028258 38.979,27.675 C39.3092429,27.4834438 39.7197375,27.4966355 40.037,27.709 L43.066,29.739 L44.733,28.063 L42.709,25.037 C42.4966355,24.7197375 42.4834438,24.3092429 42.675,23.979 C43.1028258,23.2379049 43.4322656,22.4442241 43.655,21.618 C43.7540576,21.2521574 44.0514298,20.9737582 44.423,20.899 L48,20.18 L48,17.819 L44.423,17.1 C44.0514298,17.0252418 43.7540576,16.7468426 43.655,16.381 C43.4322656,15.5547759 43.1028258,14.7610951 42.675,14.02 C42.4834438,13.6897571 42.4966355,13.2792625 42.709,12.962 L44.739,9.933 L43.063,8.267 L40.037,10.291 C39.7197375,10.5033645 39.3092429,10.5165562 38.979,10.325 C38.2379049,9.89717418 37.4442241,9.56773445 36.618,9.345 C36.2525454,9.24561741 35.9745924,8.94830842 35.9,8.577 Z M41,19 C41,22.8659932 37.8659932,26 34,26 C30.1340068,26 27,22.8659932 27,19 C27,15.1340068 30.1340068,12 34,12 C37.8641657,12.0044086 40.9955914,15.1358343 41,19 Z" id="Shape"/><path d="M44.708,13.574 C44.9840443,14.1166112 45.218064,14.6795956 45.408,15.258 L46.926,15.558 C48.4876438,14.7771754 49.3578288,13.0695165 49.0717608,11.3471392 C48.7856928,9.62476188 47.410209,8.29008387 45.68,8.056 L46.147,8.523 C46.8185306,9.19256726 46.9275347,10.2416795 46.408,11.035 L44.708,13.574 Z" id="Shape"/><path d="M29,19 C29,21.7614237 31.2385763,24 34,24 C36.7614237,24 39,21.7614237 39,19 C39,16.2385763 36.7614237,14 34,14 C31.2399468,14.0033061 29.0033061,16.2399468 29,19 Z M35,19 C35,19.5522847 34.5522847,20 34,20 C33.4477153,20 33,19.5522847 33,19 C33,18.4477153 33.4477153,18 34,18 C34.5522847,18 35,18.4477153 35,19 Z" id="Shape"/><path d="M0.636,34.735 C0.897016404,34.9170713 1.17261917,35.0772821 1.46,35.214 C2.313,35.65 3.481,36.248 3.722,37.467 C3.86518406,38.2227094 3.77195159,39.0041861 3.455,39.705 C3.281,40.076 3.101,40.396 2.944,40.672 C2.896,40.758 2.844,40.854 2.793,40.941 C3.208,41.275 3.774,41.699 4.014,41.875 C4.23229562,42.0357032 4.37599946,42.2781415 4.41219539,42.5467831 C4.44839132,42.8154248 4.37397793,43.0872516 4.206,43.3 C4.05732702,43.493163 3.92803652,43.7004967 3.82,43.919 C3.891,43.961 3.963,44.002 4.035,44.043 C4.91597603,44.4232101 5.5884572,45.1672085 5.878,46.082 C6.02631071,46.7960297 5.99365282,47.5358168 5.783,48.234 C5.736,48.439 5.689,48.644 5.66,48.849 C5.60643127,49.4507664 5.69090962,50.0568216 5.907,50.621 C6.12881207,51.543052 7.03525382,52.128719 7.967,51.952 C10.8811971,51.2511285 13.7526167,50.3830249 16.567,49.352 L16.573,49.352 C17.614,48.998 18.558,48.668 19.301,48.409 C19.994,48.166 20.517,47.984 20.789,47.897 C24.946,46.572 25.789,45.075 25.765,44.052 C25.752146,43.5000397 26.1890455,43.042101 26.741,43.029 C27.0071266,43.0189946 27.2659833,43.1170667 27.4586705,43.3009012 C27.6513577,43.4847357 27.7614871,43.7386973 27.764,44.005 C27.823,46.487 25.681,48.437 21.399,49.805 C21.137,49.889 20.631,50.065 19.961,50.305 L19.061,50.619 C20.7094382,52.4462123 21.9125104,54.6302247 22.576,57 L45.258,56.937 L45.191,56.837 C44.9033067,56.4218577 44.6443682,55.9875092 44.416,55.537 C43.9186739,54.5263955 43.5036619,53.4773282 43.175,52.4 C42.5682684,50.3530291 42.1472324,48.2555471 41.917,46.133 C41.5226514,42.7875258 42.0287491,39.3974307 43.383,36.313 C44.181408,34.6438155 45.1688779,33.0718493 46.326,31.628 C46.906,30.846 47.506,30.038 48.026,29.217 C49.4111468,27.0779657 50.1554304,24.5873047 50.171,22.039 C50.177,21.813 50.171,21.588 50.166,21.363 L49.773,21.1 C49.4965057,21.6402002 48.9888461,22.0249024 48.394,22.145 L45.406,22.745 C45.216064,23.3234044 44.9820443,23.8863888 44.706,24.429 L46.4,26.953 C46.9315268,27.7519165 46.8207373,28.8157476 46.136,29.488 L44.477,31.147 C43.8074327,31.8185306 42.7583205,31.9275347 41.965,31.408 L39.426,29.708 C38.8833888,29.9840443 38.3204044,30.218064 37.742,30.408 L37.142,33.4 C36.9517429,34.3320693 36.1312884,35.0011453 35.18,35 L32.82,35 C31.8665593,35.0004731 31.045351,34.3278524 30.858,33.393 L30.258,30.405 C29.6795956,30.215064 29.1166112,29.9810443 28.574,29.705 L26.047,31.4 C25.247926,31.9287833 24.1864487,31.8186142 23.513,31.137 L21.853,29.477 C21.1814694,28.8074327 21.0724653,27.7583205 21.592,26.965 L23.292,24.426 C23.0159557,23.8833888 22.781936,23.3204044 22.592,22.742 L19.6,22.142 C18.6679307,21.9517429 17.9988547,21.1312884 18,20.18 L18,17.82 C17.9995269,16.8665593 18.6721476,16.045351 19.607,15.858 L22.595,15.258 C22.784936,14.6795956 23.0189557,14.1166112 23.295,13.574 L21.6,11.047 C21.0684732,10.2480835 21.1792627,9.18425235 21.864,8.512 L23.523,6.853 C24.1925673,6.18146939 25.2416795,6.07246529 26.035,6.592 L28.574,8.292 C29.1166112,8.01595569 29.6795956,7.78193603 30.258,7.592 L30.858,4.6 C31.0482571,3.66793067 31.8687116,2.99885469 32.82,3 L35.18,3 C35.3123818,3.00123879 35.4443319,3.01530454 35.574,3.042 L36.394,2.222 C33.7584309,1.27082389 30.9571892,0.864620045 28.16,1.028 C25.0046074,1.24988685 21.8696146,1.70175362 18.78,2.38 C14.744,3.18 11.729,4.615 9.816,6.637 C8.23716519,8.32960767 7.01673014,10.3238693 6.228,12.5 C5.85776635,13.5823467 5.55715248,14.6872697 5.328,15.808 C5.08464372,16.7423575 4.74968773,17.6504232 4.328,18.519 C4.14,18.94 3.951,19.36 3.788,19.788 C3.69044363,20.0122238 3.6355067,20.2526577 3.626,20.497 C3.669,20.797 4.052,21.145 4.458,21.516 C5.28572805,22.0976377 5.82053472,23.0096546 5.924,24.016 C5.90563342,24.491103 5.7732421,24.9548156 5.538,25.368 C4.28652654,28.0034228 2.75289097,30.4953291 0.964,32.8 C0.203,33.727 0.044,34.094 0.04,34.246 C0.22347897,34.4266783 0.422962279,34.5903483 0.636,34.735 Z M7.471,15.25 C7.62815969,14.5552533 7.82515171,13.8701218 8.061,13.198 C8.75614575,11.2732275 9.83379397,9.50912284 11.229,8.012 C12.853,6.3 15.516,5.06 19.145,4.338 C19.6867913,4.23058063 20.2130806,4.58270867 20.3205,5.1245 C20.4279194,5.66629134 20.0757913,6.19258061 19.534,6.3 C16.32,6.939 14.015,7.978 12.682,9.386 C11.4735494,10.6858491 10.5402067,12.2164768 9.938,13.886 C9.72855738,14.4871971 9.5536061,15.0998605 9.414,15.721 C9.33059085,16.0694534 9.06713053,16.3466533 8.7233635,16.4476536 C8.37959646,16.5486538 8.00806424,16.4580176 7.74942662,16.2100591 C7.49078901,15.9621006 7.38457631,15.594718 7.471,15.247 L7.471,15.25 Z M7,19 C7.55228475,19 8,19.4477153 8,20 C8,20.5522847 7.55228475,21 7,21 C6.44771525,21 6,20.5522847 6,20 C6,19.4477153 6.44771525,19 7,19 Z" id="Shape"/><path d="M37.742,7.6 C38.3204044,7.78993603 38.8833888,8.02395569 39.426,8.3 L41.953,6.6 C42.3666116,6.33032695 42.8643993,6.22081366 43.353,6.292 C43.9264672,6.10253554 44.5260585,6.00400954 45.13,6 C47.5759151,5.99176913 49.7807939,7.47244829 50.6986688,9.73962145 C51.6165438,12.0067946 51.0627498,14.6043345 49.3,16.3 C49.743618,16.6805022 49.9992335,17.2355531 50,17.82 L50,18.842 L52.223,20.333 L53.333,19.223 L51.8,16.937 C51.5850329,16.6164292 51.5737461,16.2007641 51.771,15.869 C52.1079017,15.2965611 52.365267,14.6809029 52.536,14.039 C52.6350543,13.6722153 52.9333999,13.3932427 53.306,13.319 L56.006,12.782 L56.006,11.218 L53.311,10.681 C52.9383999,10.6067573 52.6400543,10.3277847 52.541,9.961 C52.370267,9.31909713 52.1129017,8.70343892 51.776,8.131 C51.5772476,7.80019329 51.586588,7.38454458 51.8,7.063 L53.334,4.777 L52.224,3.667 L49.937,5.2 C49.6164292,5.41496713 49.2007641,5.42625392 48.869,5.229 C48.2965611,4.89209833 47.6809029,4.63473301 47.039,4.464 C46.6722153,4.36494573 46.3932427,4.06660008 46.319,3.694 L45.782,1 L44.218,1 L43.681,3.7 C43.6067573,4.07260008 43.3277847,4.37094573 42.961,4.47 C42.3190971,4.64073301 41.7034389,4.89809833 41.131,5.235 C40.7980885,5.43046291 40.3823997,5.41684015 40.063,5.2 L37.777,3.667 L37.077,4.367 C37.1052534,4.44403458 37.1283052,4.52287839 37.146,4.603 L37.742,7.6 Z" id="Shape"/></g></g></svg>
