<?xml version="1.0" encoding="iso-8859-1"?>
<!-- Generator: Adobe Illustrator 19.0.0, SVG Export Plug-In . SVG Version: 6.00 Build 0)  -->
<svg version="1.1" id="Capa_1" xmlns="http://www.w3.org/2000/svg" xmlns:xlink="http://www.w3.org/1999/xlink" x="0px" y="0px"
	 viewBox="0 0 476.1 476.1" style="enable-background:new 0 0 476.1 476.1;" xml:space="preserve">
<path style="fill:#FDC75B;" d="M415.9,120.2l1-1l1,1V426c0,22.1-17.9,40-40,40H98.3c-22.1,0-40-17.9-40-40V50.2
	c0-22.1,17.9-40,40-40h212.8l1,1l-1,1v88c0,11,8.9,20,20,20H415.9z M265.6,273.9v-12.6c0-32.8-26.4-59.2-59.2-59.2h-20.2
	c-32.8,0-59.2,26.4-59.2,59.2v12.6H265.6z M236.3,138.1c0-11-4.4-21-11.6-28.2c-7.2-7.2-17.1-11.6-28.2-11.6c-11,0-21,4.4-28.2,11.6
	s-11.6,17.2-11.6,28.2c0,22.1,17.8,39.8,39.8,39.8c11,0,21-4.4,28.2-11.6S236.3,149.1,236.3,138.1z"/>
<g>
	<path style="fill:#ED664C;" d="M416.9,119.2l-1,1h-84.8c-11.1,0-20-9-20-20v-88l1-1L416.9,119.2z"/>
	<path style="fill:#ED664C;" d="M265.6,261.3v12.6H127.1v-12.6c0-32.8,26.4-59.2,59.2-59.2h20.2
		C239.2,202.1,265.6,228.5,265.6,261.3z"/>
	<path style="fill:#ED664C;" d="M224.7,109.9c7.2,7.2,11.6,17.2,11.6,28.2s-4.4,21-11.6,28.2s-17.1,11.6-28.2,11.6
		c-22.1,0-39.8-17.8-39.8-39.8c0-11,4.4-21,11.6-28.2c7.2-7.2,17.1-11.6,28.2-11.6C207.5,98.3,217.5,102.7,224.7,109.9z"/>
</g>
<path d="M98.3,476.1h279.5c27.6,0,50.2-22.5,50.2-50.1V120.2c0-2.6-1.1-5.1-2.9-7l-1.1-1l0,0L319.2,4.2l-1-1.1
	C316.3,1.2,313.7,0,311,0H98.3C70.8,0.1,48.1,22.6,48.1,50.2V426C48.1,453.6,70.8,476.1,98.3,476.1z M321.1,34.9l73.1,75.2h-63.1
	c-5.5,0-10-4.4-10-9.9V34.9z M68.1,50.2c0-16.5,13.7-30.1,30.2-30.1h202.8v80.1c0,16.5,13.4,29.9,30,29.9h77V426
	c0,16.5-13.7,30.1-30.2,30.1H98.3c-16.5,0-30.2-13.6-30.2-30.1V50.2z"/>
<path d="M119.9,402.1h230.2c5.5,0,10-4.5,10-10s-4.5-10-10-10H119.9c-5.5,0-10,4.5-10,10S114.4,402.1,119.9,402.1z"/>
<path d="M119.9,348.1h137.8c5.5,0,10-4.5,10-10s-4.5-10-10-10H119.9c-5.5,0-10,4.5-10,10S114.4,348.1,119.9,348.1z"/>
<path d="M127.1,284.1h138.5c5.5,0,10.5-4.6,10.5-10.2v-12.6c0-18.5-7.4-35.9-20.5-49c-13-13-30.7-20.2-49.2-20.2h-20.2
	c-18.5,0-35.9,7.2-49,20.2c-13,13-20.2,30.4-20.2,49v12.6C117.1,279.5,121.6,284.1,127.1,284.1z M137.1,261.3
	c0-27.1,22-49.2,49.2-49.2h20.2c27.1,0,49.7,22.1,49.7,49.2v2.8H137.1V261.3z"/>
<path d="M196.5,187.9c13.3,0,25.9-5.2,35.3-14.6c9.4-9.4,14.6-21.9,14.6-35.3c0-13.3-5.2-25.9-14.6-35.2
	c-9.4-9.4-21.9-14.6-35.3-14.6c-13.3,0-25.9,5.2-35.2,14.6c-9.4,9.4-14.6,21.9-14.6,35.2C146.7,165.6,169,187.9,196.5,187.9z
	 M175.4,117c5.6-5.6,13.1-8.7,21.1-8.7s15.5,3.1,21.1,8.7c5.6,5.6,8.7,13.1,8.7,21.1s-3.1,15.5-8.7,21.1c-5.6,5.6-13.1,8.7-21.1,8.7
	c-16.4,0-29.8-13.4-29.8-29.8C166.7,130.1,169.8,122.6,175.4,117z"/>
<g>
</g>
<g>
</g>
<g>
</g>
<g>
</g>
<g>
</g>
<g>
</g>
<g>
</g>
<g>
</g>
<g>
</g>
<g>
</g>
<g>
</g>
<g>
</g>
<g>
</g>
<g>
</g>
<g>
</g>
</svg>
