<?xml version="1.0"?>
<svg xmlns="http://www.w3.org/2000/svg" xmlns:xlink="http://www.w3.org/1999/xlink" xmlns:svgjs="http://svgjs.com/svgjs" version="1.1" width="512" height="512" x="0" y="0" viewBox="0 0 64 64" style="enable-background:new 0 0 512 512" xml:space="preserve" class=""><g><g xmlns="http://www.w3.org/2000/svg" id="Planetary_System" data-name="Planetary System"><path d="m28.01 41.73a16.685 16.685 0 0 0 4.64-1.55 16.929 16.929 0 0 0 7.53-7.53 16.685 16.685 0 0 0 1.55-4.64 13.981 13.981 0 0 0 -13.72 13.72z" fill="#015689" data-original="#ee8700" style="" class=""/><g fill="#ff9811"><path d="m28.91 46.96a12.838 12.838 0 0 1 -.55-1.79c1.19-1.5 2.6-3.16 4.29-4.99a16.929 16.929 0 0 0 7.53-7.53c1.83-1.69 3.49-3.1 4.99-4.29a12.838 12.838 0 0 1 1.79.55c.03.36.04.72.04 1.09a16.377 16.377 0 0 1 -.15 2.23 102.383 102.383 0 0 0 -14.62 14.62 16.377 16.377 0 0 1 -2.23.15c-.37 0-.73-.01-1.09-.04z" fill="#015689" data-original="#ff9811" style="" class=""/><path d="m56 42q0 .435-.03.87a13.991 13.991 0 0 1 -13.1 13.1q-.435.03-.87.03a14.324 14.324 0 0 1 -3.17-.36 101.678 101.678 0 0 0 8.83-7.98 101.678 101.678 0 0 0 7.98-8.83 14.324 14.324 0 0 1 .36 3.17z" fill="#015689" data-original="#ff9811" style="" class=""/><path d="m46.96 28.91a12.838 12.838 0 0 0 -1.79-.55 14.324 14.324 0 0 0 -3.17-.36 2.437 2.437 0 0 0 -.27.01 16.685 16.685 0 0 1 -1.55 4.64 16.929 16.929 0 0 1 -7.53 7.53 16.685 16.685 0 0 1 -4.64 1.55 2.437 2.437 0 0 0 -.01.27 14.324 14.324 0 0 0 .36 3.17 12.838 12.838 0 0 0 .55 1.79c.36.03.72.04 1.09.04a16.377 16.377 0 0 0 2.23-.15 16.976 16.976 0 0 0 14.62-14.62 16.377 16.377 0 0 0 .15-2.23c0-.37-.01-.73-.04-1.09z" fill="#015689" data-original="#ff9811" style="" class=""/></g><path d="m53.81 34.49a14 14 0 0 0 -4.3-4.3 13.826 13.826 0 0 0 -2.55-1.28c.03.36.04.72.04 1.09a16.377 16.377 0 0 1 -.15 2.23 16.976 16.976 0 0 1 -14.62 14.62 16.377 16.377 0 0 1 -2.23.15c-.37 0-.73-.01-1.09-.04a13.519 13.519 0 0 0 1.28 2.55 14.057 14.057 0 0 0 8.64 6.13 101.678 101.678 0 0 0 8.83-7.98 101.678 101.678 0 0 0 7.98-8.83 14.046 14.046 0 0 0 -1.83-4.34z" fill="#015689" data-original="#ffa733" style="" class=""/><circle cx="5" cy="48" fill="#f9bb00" r="2" data-original="#bcbec0" style="" class=""/><circle cx="41" cy="13" fill="#f9bb00" r="2" data-original="#bcbec0" style="" class=""/><circle cx="12" cy="12" fill="#288ab5" r="7" data-original="#d1d3d4" style="" class=""/><path d="m56 42q0 .435-.03.87c-1.7 2.01-3.78 4.26-6.31 6.79s-4.78 4.61-6.79 6.31q-.435.03-.87.03a14.324 14.324 0 0 1 -3.17-.36 101.678 101.678 0 0 0 8.83-7.98 101.678 101.678 0 0 0 7.98-8.83 14.324 14.324 0 0 1 .36 3.17z" fill="#015689" data-original="#ee8700" style="" class=""/><path d="m59.68 24.32c-1.13-1.13-4.12-4.11-14.51 4.04a12.838 12.838 0 0 1 1.79.55 13.826 13.826 0 0 1 2.55 1.28c3.7-2.66 6.48-3.9 7.34-3.04s-.38 3.64-3.04 7.34a87.8 87.8 0 0 1 -8.98 10.34 87.8 87.8 0 0 1 -10.34 8.98c-3.7 2.66-6.48 3.9-7.34 3.04s.38-3.64 3.04-7.34a13.519 13.519 0 0 1 -1.28-2.55 12.838 12.838 0 0 1 -.55-1.79c-8.15 10.39-5.17 13.38-4.04 14.51s4.12 4.11 14.51-4.04a101.678 101.678 0 0 0 8.83-7.98 101.678 101.678 0 0 0 7.98-8.83c8.15-10.39 5.17-13.38 4.04-14.51z" fill="#37858d" data-original="#e6e7e8" style="" class=""/><path d="m60.387 23.613c-2.009-2.01-5.807-3.776-15.476 3.69a15.405 15.405 0 0 0 -2.911-.303 15.017 15.017 0 0 0 -15 15 15.375 15.375 0 0 0 .3 2.91c-7.467 9.669-5.7 13.466-3.691 15.477a5.556 5.556 0 0 0 4.134 1.754c2.445 0 6-1.311 11.347-5.443a15.343 15.343 0 0 0 2.91.302 15.017 15.017 0 0 0 15-15 15.326 15.326 0 0 0 -.3-2.911c7.463-9.668 5.7-13.465 3.687-15.476zm-6.593 9.142a15.074 15.074 0 0 0 -2.549-2.55c3.007-2.022 4.45-2.392 4.877-2.327.053.414-.307 1.866-2.328 4.877zm-4.82-1.721a13.076 13.076 0 0 1 3.6 3.445 89.7 89.7 0 0 1 -8.451 9.644 89.686 89.686 0 0 1 -9.644 8.451 13.071 13.071 0 0 1 -3.447-3.6c-.206-.322-.395-.654-.572-.993a18 18 0 0 0 17.517-17.521c.34.177.674.367.997.574zm-6.444-2a13.569 13.569 0 0 1 2.409.3c.356.084.7.183 1.048.294 0 .125.013.246.013.373a16.019 16.019 0 0 1 -16 15.999c-.127 0-.248-.011-.373-.014-.11-.34-.208-.685-.291-1.036a13.535 13.535 0 0 1 -.306-2.42 18 18 0 0 0 13.5-13.5zm-12.325 22.211a15.154 15.154 0 0 0 2.55 2.55c-3.009 2.019-4.456 2.378-4.877 2.327-.053-.414.307-1.866 2.327-4.877zm10.261-22.145a16.018 16.018 0 0 1 -11.366 11.365 13.014 13.014 0 0 1 11.366-11.365zm-15.439 29.873c-.815-.815-3.2-3.209 2.962-11.654a14.785 14.785 0 0 0 1.016 2.141c-3.913 5.595-3.353 7.306-2.562 8.1a1.948 1.948 0 0 0 1.474.574c1.249 0 3.361-.78 7.157-3.509a89.551 89.551 0 0 0 10.463-9.085 89.371 89.371 0 0 0 9.084-10.463c4.337-6.032 3.752-7.815 2.936-8.631-.793-.793-2.5-1.35-8.1 2.562a14.742 14.742 0 0 0 -2.142-1.016c8.448-6.162 10.84-3.778 11.655-2.962.862.863 3.487 3.489-4.119 13.184a101.534 101.534 0 0 1 -7.9 8.742 101.566 101.566 0 0 1 -8.74 7.9c-9.696 7.604-12.321 4.979-13.184 4.117zm16.973-3.973c-.25 0-.5-.029-.757-.043 2.2-1.854 4.588-4.054 7.124-6.59s4.734-4.917 6.589-7.124c.015.253.044.507.044.757a13.015 13.015 0 0 1 -13 13z" fill="#020202" data-original="#000000" style="" class=""/><path d="m4 12a7.981 7.981 0 0 0 10.609 7.555c2.561 1.9 4.537 2.87 5.89 2.869a1.888 1.888 0 0 0 1.4-.527c1.171-1.171.368-3.629-2.344-7.283a7.98 7.98 0 0 0 -10.168-10.167c-3.654-2.713-6.114-3.515-7.287-2.347s-.365 3.634 2.347 7.287a7.939 7.939 0 0 0 -.447 2.613zm2 0c0-.2.011-.4.03-.6.952 1.135 2.01 2.3 3.143 3.429s2.294 2.192 3.428 3.143c-.2.019-.4.03-.6.03a6.006 6.006 0 0 1 -6.001-6.002zm14.435 8.435c-.434-.019-1.65-.4-3.828-1.906a8.046 8.046 0 0 0 1.922-1.922c1.507 2.177 1.887 3.393 1.906 3.828zm-2.435-8.435a6 6 0 0 1 -3.107 5.253 49.091 49.091 0 0 1 -4.306-3.84 48.972 48.972 0 0 1 -3.84-4.307 6 6 0 0 1 11.253 2.894zm-14.435-8.435c.434.019 1.65.4 3.828 1.906a8.046 8.046 0 0 0 -1.922 1.922c-1.507-2.177-1.887-3.393-1.906-3.828z" fill="#020202" data-original="#000000" style="" class=""/><path d="m38 13a3 3 0 1 0 3-3 3 3 0 0 0 -3 3zm3-1a1 1 0 1 1 -1 1 1 1 0 0 1 1-1z" fill="#020202" data-original="#000000" style="" class=""/><path d="m5 45a3 3 0 1 0 3 3 3 3 0 0 0 -3-3zm0 4a1 1 0 1 1 1-1 1 1 0 0 1 -1 1z" fill="#020202" data-original="#000000" style="" class=""/><path d="m56 8h2v-2h2v-2h-2v-2h-2v2h-2v2h2z" fill="#020202" data-original="#000000" style="" class=""/><path d="m60 52h2v2h-2z" fill="#020202" data-original="#000000" style="" class=""/><path d="m53 60h2v2h-2z" fill="#020202" data-original="#000000" style="" class=""/><path d="m59 40h2v2h-2z" fill="#020202" data-original="#000000" style="" class=""/><path d="m8 29h-2v2h-2v2h2v2h2v-2h2v-2h-2z" fill="#020202" data-original="#000000" style="" class=""/><path d="m15 37h2v2h-2z" fill="#020202" data-original="#000000" style="" class=""/><path d="m26 9h2v2h-2z" fill="#020202" data-original="#000000" style="" class=""/><path d="m30 21h2v2h-2z" fill="#020202" data-original="#000000" style="" class=""/><path d="m37 3h2v2h-2z" fill="#020202" data-original="#000000" style="" class=""/><path d="m19 30h2v2h-2z" fill="#020202" data-original="#000000" style="" class=""/><path d="m11 57h2v2h-2z" fill="#020202" data-original="#000000" style="" class=""/></g></g></svg>
